<svg width="800" height="242" viewBox="0 0 800 242" fill="none" xmlns="http://www.w3.org/2000/svg">
<g clip-path="url(#clip0_1_2)">
<path d="M196 194.46L187 68.42V68.05C187 66.68 187.74 66.05 189.23 66.05H211.23C211.504 66.0119 211.784 66.0368 212.047 66.1229C212.31 66.209 212.55 66.354 212.749 66.5468C212.947 66.7397 213.099 66.9753 213.193 67.2358C213.287 67.4963 213.32 67.7748 213.29 68.05L215.34 135.17C215.46 135.67 215.64 135.91 215.89 135.91C216.14 135.91 216.33 135.67 216.46 135.17L234.54 68.05C234.656 67.4554 234.985 66.9237 235.466 66.5553C235.947 66.1868 236.546 66.0071 237.15 66.05H255.42C255.694 66.0115 255.973 66.0363 256.236 66.1224C256.498 66.2085 256.738 66.3537 256.936 66.5468C257.134 66.7399 257.285 66.9758 257.378 67.2364C257.47 67.497 257.502 67.7753 257.47 68.05L259.9 135.17C259.9 135.67 260.05 135.91 260.36 135.91C260.67 135.91 260.89 135.67 261.01 135.17L278.35 68.05C278.455 67.4388 278.786 66.8893 279.276 66.5098C279.767 66.1304 280.382 65.9485 281 66H302.4C303.89 66 304.45 66.81 304.08 68.42L265.68 194.42C265.558 195.013 265.226 195.543 264.744 195.91C264.263 196.278 263.665 196.459 263.06 196.42H243.49C243.216 196.458 242.936 196.433 242.673 196.347C242.41 196.261 242.17 196.116 241.971 195.923C241.773 195.73 241.621 195.495 241.527 195.234C241.433 194.974 241.4 194.695 241.43 194.42L239.2 125.42C239.2 124.93 239.08 124.68 238.83 124.68C238.58 124.68 238.33 124.93 238.08 125.42L220 194.42C219.878 195.012 219.548 195.54 219.068 195.907C218.589 196.274 217.993 196.456 217.39 196.42H198.18C196.69 196.51 196 195.82 196 194.46Z" fill="#171717"/>
<path d="M379.12 87.91C378.915 88.1201 378.669 88.2861 378.397 88.3978C378.125 88.5096 377.834 88.5648 377.54 88.56H339.69C339.564 88.5415 339.435 88.5528 339.313 88.593C339.192 88.6332 339.082 88.7012 338.992 88.7915C338.901 88.8819 338.833 88.9921 338.793 89.1133C338.753 89.2346 338.742 89.3636 338.76 89.49L335 119C335 119.62 335.25 119.93 335.75 119.93H357.56C357.841 119.919 358.121 119.972 358.379 120.085C358.637 120.197 358.867 120.367 359.05 120.58C359.234 120.797 359.364 121.053 359.43 121.33C359.496 121.606 359.496 121.894 359.43 122.17L357.19 140.25C357.073 140.851 356.78 141.404 356.35 141.84C356.143 142.05 355.895 142.216 355.622 142.328C355.348 142.44 355.055 142.495 354.76 142.49H333.16C332.42 142.49 332.05 142.8 332.05 143.42L328.5 173C328.253 173.62 328.503 173.93 329.25 173.93H366.91C367.205 173.926 367.498 173.982 367.771 174.093C368.044 174.205 368.292 174.371 368.5 174.58C368.709 174.782 368.862 175.035 368.942 175.314C369.023 175.593 369.029 175.888 368.96 176.17L366.72 194.25C366.608 194.851 366.319 195.405 365.89 195.84C365.682 196.049 365.434 196.215 365.161 196.327C364.888 196.438 364.595 196.494 364.3 196.49H302.22C301.937 196.501 301.656 196.448 301.396 196.336C301.136 196.223 300.905 196.054 300.72 195.84C300.538 195.622 300.41 195.365 300.346 195.089C300.281 194.813 300.283 194.525 300.35 194.25L315.83 68.25C315.941 67.6466 316.234 67.0916 316.67 66.66C316.875 66.4499 317.121 66.2839 317.393 66.1721C317.665 66.0604 317.956 66.0052 318.25 66.01H380.34C380.621 66.0007 380.901 66.0542 381.158 66.1666C381.416 66.2791 381.646 66.4476 381.83 66.66C382.012 66.8775 382.14 67.1347 382.204 67.4109C382.269 67.6871 382.267 67.9745 382.2 68.25L380 86.32C379.878 86.9282 379.571 87.4837 379.12 87.91Z" fill="#171717"/>
<path d="M443.26 187C435.733 193.34 426.503 196.51 415.57 196.51H381.45C381.169 196.521 380.889 196.468 380.631 196.355C380.373 196.243 380.143 196.073 379.96 195.86C379.776 195.644 379.646 195.387 379.582 195.11C379.518 194.833 379.52 194.545 379.59 194.27L395.06 68.27C395.171 67.6666 395.464 67.1116 395.9 66.68C396.107 66.4696 396.355 66.3035 396.628 66.1918C396.902 66.0801 397.195 66.025 397.49 66.03H427.69C438.623 66.03 447.107 68.4833 453.14 73.39C459.173 78.2967 462.173 85.6 462.14 95.3C462.14 96.54 462.01 98.66 461.77 101.64C460.27 113.82 455.05 122.77 446.11 128.49C445.61 128.86 445.55 129.23 445.92 129.6C453.12 135.32 456.723 143.463 456.73 154.03C456.73 155.15 456.607 157.077 456.36 159.81C455.147 171.603 450.78 180.667 443.26 187ZM426.39 169.29C428.99 166.31 430.657 162.083 431.39 156.61C431.532 155.308 431.592 153.999 431.57 152.69C431.57 148.343 430.64 144.927 428.78 142.44C427.881 141.224 426.696 140.247 425.331 139.597C423.965 138.946 422.461 138.642 420.95 138.71H412.74C412.25 138.71 411.87 139.02 411.63 139.64L407.71 172.83C407.463 173.45 407.713 173.76 408.46 173.76H416.46C418.344 173.805 420.214 173.427 421.933 172.653C423.651 171.88 425.175 170.73 426.39 169.29ZM418 89.49L414.28 118.76C414.28 119.38 414.52 119.69 415.02 119.69H421.55C426.27 119.69 429.967 118.023 432.64 114.69C435.313 111.357 436.647 106.69 436.64 100.69C436.64 96.69 435.64 93.69 433.75 91.64C431.86 89.59 429.06 88.57 425.45 88.57H418.92C418.795 88.5536 418.669 88.5661 418.549 88.6065C418.43 88.6469 418.322 88.7142 418.233 88.8032C418.144 88.8921 418.077 89.0003 418.036 89.1194C417.996 89.2385 417.984 89.3653 418 89.49Z" fill="#171717"/>
<path d="M534.52 155.12C533.65 161.12 532.84 165.75 532.09 169.12C529.977 178.073 525.72 185.127 519.32 190.28C512.92 195.433 504.92 198.013 495.32 198.02C485.38 198.02 477.613 195.283 472.02 189.81C466.427 184.337 463.953 177.067 464.6 168C464.6 165.77 464.85 162.16 465.35 157.19C465.358 156.883 465.427 156.58 465.553 156.3C465.68 156.02 465.861 155.768 466.087 155.559C466.313 155.35 466.578 155.189 466.867 155.084C467.156 154.979 467.463 154.934 467.77 154.95H488.84C490.45 154.95 491.14 155.7 490.89 157.19C490.524 159.841 490.337 162.514 490.33 165.19C490.33 168.417 491.013 170.933 492.38 172.74C493.051 173.626 493.928 174.336 494.935 174.806C495.943 175.277 497.05 175.494 498.16 175.44C499.323 175.442 500.475 175.212 501.548 174.764C502.621 174.316 503.594 173.659 504.41 172.83C506.34 170.861 507.72 168.42 508.41 165.75C508.79 163.877 509.537 159.4 510.65 152.32C511.207 147.742 511.458 143.132 511.4 138.52C511.403 136.157 510.614 133.862 509.16 132C508.502 131.21 507.673 130.581 506.736 130.16C505.798 129.739 504.777 129.537 503.75 129.57C501.61 129.693 499.579 130.551 498 132C497.561 132.357 497.049 132.613 496.5 132.75C496.189 132.748 495.884 132.659 495.621 132.492C495.358 132.326 495.146 132.09 495.01 131.81L485.5 120.44C485.212 120.068 485.079 119.598 485.13 119.13C485.122 118.786 485.184 118.444 485.311 118.125C485.438 117.805 485.628 117.514 485.87 117.27L511 89.49C511.49 88.75 511.37 88.37 510.62 88.37H478C477.717 88.3831 477.435 88.3313 477.175 88.2186C476.915 88.106 476.684 87.9354 476.5 87.72C476.317 87.5029 476.189 87.2457 476.124 86.9694C476.06 86.693 476.062 86.4054 476.13 86.13L478.37 68.24C478.481 67.6366 478.774 67.0816 479.21 66.65C479.415 66.4399 479.661 66.2739 479.933 66.1621C480.205 66.0504 480.496 65.9952 480.79 66H543.06C543.343 65.9906 543.624 66.044 543.883 66.1564C544.142 66.2688 544.374 66.4374 544.56 66.65C544.742 66.8675 544.87 67.1247 544.934 67.4009C544.999 67.6771 544.997 67.9645 544.93 68.24L542.69 86.88C542.491 87.9053 542.045 88.8665 541.39 89.68L517.92 116C517.43 116.74 517.49 117.11 518.11 117.11C520.623 117.319 523.054 118.1 525.219 119.393C527.384 120.686 529.224 122.457 530.6 124.57C533.713 129.05 535.267 134.643 535.26 141.35C535.27 145.95 535.023 150.547 534.52 155.12Z" fill="#99E24D"/>
<path d="M543.84 195.86C543.654 195.645 543.523 195.388 543.457 195.111C543.391 194.835 543.392 194.546 543.46 194.27L558.94 68.27C559.051 67.6666 559.344 67.1116 559.78 66.68C559.985 66.4699 560.231 66.3039 560.503 66.1921C560.775 66.0804 561.066 66.0252 561.36 66.03H594C604.067 66.03 611.99 68.7967 617.77 74.33C623.55 79.8633 626.44 87.2867 626.44 96.6C626.44 97.85 626.31 99.71 626.07 102.2L618.79 160.37C617.417 171.31 613.037 180.073 605.65 186.66C598.263 193.247 589.047 196.53 578 196.51H545.33C545.049 196.522 544.768 196.469 544.51 196.356C544.252 196.244 544.023 196.074 543.84 195.86ZM572.36 174L580.57 173.81C582.206 173.731 583.806 173.308 585.267 172.569C586.728 171.83 588.017 170.791 589.05 169.52C591.614 166.451 593.205 162.688 593.62 158.71L600.33 103.9C600.473 102.85 600.537 101.79 600.52 100.73C600.52 97.0033 599.68 94.05 598 91.87C597.152 90.7908 596.057 89.9314 594.808 89.364C593.558 88.7966 592.19 88.538 590.82 88.61H582.82C582.694 88.5915 582.565 88.6028 582.443 88.643C582.322 88.6832 582.212 88.7512 582.121 88.8415C582.031 88.9319 581.963 89.0421 581.923 89.1633C581.883 89.2846 581.872 89.4136 581.89 89.54L571.62 173C571.37 173.64 571.62 174 572.36 174Z" fill="#171717"/>
<path d="M707.81 87.91C707.605 88.1201 707.359 88.2861 707.087 88.3979C706.815 88.5096 706.524 88.5648 706.23 88.56H668.38C668.254 88.5415 668.125 88.5528 668.003 88.593C667.882 88.6332 667.772 88.7012 667.682 88.7916C667.591 88.8819 667.523 88.9921 667.483 89.1133C667.443 89.2346 667.432 89.3636 667.45 89.49L663.72 119C663.72 119.62 663.96 119.93 664.46 119.93H686.28C686.561 119.919 686.841 119.972 687.099 120.085C687.357 120.197 687.587 120.367 687.77 120.58C687.952 120.798 688.08 121.055 688.144 121.331C688.209 121.607 688.207 121.895 688.14 122.17L685.9 140.2C685.792 140.802 685.502 141.357 685.07 141.79C684.862 141.999 684.614 142.165 684.341 142.277C684.068 142.388 683.775 142.444 683.48 142.44H661.85C661.11 142.44 660.74 142.75 660.74 143.37L657.19 173C656.943 173.62 657.193 173.93 657.94 173.93H695.6C695.894 173.925 696.185 173.98 696.457 174.092C696.729 174.204 696.975 174.37 697.18 174.58C697.391 174.781 697.545 175.033 697.628 175.312C697.71 175.591 697.718 175.887 697.65 176.17L695.41 194.25C695.298 194.851 695.009 195.405 694.58 195.84C694.372 196.049 694.124 196.215 693.851 196.327C693.578 196.438 693.285 196.494 692.99 196.49H630.91C630.627 196.501 630.346 196.448 630.086 196.336C629.826 196.223 629.595 196.054 629.41 195.84C629.228 195.622 629.1 195.365 629.036 195.089C628.971 194.813 628.973 194.525 629.04 194.25L644.51 68.25C644.629 67.6473 644.925 67.0937 645.36 66.66C645.565 66.449 645.811 66.2823 646.082 66.1705C646.354 66.0587 646.646 66.004 646.94 66.01H709C709.28 66.0007 709.558 66.0543 709.814 66.1668C710.07 66.2793 710.298 66.4479 710.48 66.66C710.666 66.8754 710.797 67.1322 710.863 67.4088C710.929 67.6854 710.928 67.9739 710.86 68.25L708.62 86.33C708.511 86.9248 708.229 87.4743 707.81 87.91Z" fill="#171717"/>
<path d="M730.27 194.46L719.83 68.46V68.09C719.83 66.72 720.57 66.09 722.07 66.09H745.37C745.64 66.0598 745.913 66.0908 746.17 66.1806C746.426 66.2704 746.659 66.4168 746.851 66.6089C747.043 66.801 747.19 67.0339 747.279 67.2903C747.369 67.5467 747.4 67.82 747.37 68.09L749.8 150.09C749.8 150.59 749.95 150.84 750.26 150.84C750.57 150.84 750.79 150.59 750.92 150.09L773.1 68.09C773.218 67.4964 773.548 66.966 774.028 66.5979C774.508 66.2298 775.106 66.0493 775.71 66.09H798.27C799.76 66.09 800.27 66.9 799.76 68.51L758.19 194.51C758.068 195.102 757.738 195.63 757.258 195.997C756.779 196.364 756.183 196.546 755.58 196.51H732.32C732.041 196.55 731.757 196.525 731.49 196.436C731.223 196.347 730.981 196.197 730.782 195.998C730.583 195.799 730.433 195.557 730.344 195.29C730.255 195.023 730.23 194.739 730.27 194.46Z" fill="#171717"/>
<path d="M11 176L53.9 169.4L154 198L77 209.84L11 176Z" fill="#4A565B"/>
<path d="M22 44L77 30.25L110 66L89.69 71.08L22 44Z" fill="#4A565B"/>
<path d="M0 110L54.35 100.94L132 132L97.26 137.79L0 110Z" fill="#4A565B"/>
<path d="M22 44L132 88V132L22 88V44Z" fill="#4CE577"/>
<path d="M77 0L110 22V66L77 44V0Z" fill="#99E24D"/>
<path d="M0 110L154 154V198L0 154V110Z" fill="#4D98E2"/>
<path d="M11 176L77 198V242L11 220V176Z" fill="#795CE5"/>
</g>
<defs>
<clipPath id="clip0_1_2">
<rect width="800" height="242" fill="white"/>
</clipPath>
</defs>
</svg>
