<svg xmlns="http://www.w3.org/2000/svg" viewBox="0 0 800 242"><defs><style>.cls-1{fill:#fbfbfb;}.cls-2{fill:#99e24d;}.cls-3{fill:#4a565b;}.cls-4{fill:#4ce577;}.cls-5{fill:#4d98e2;}.cls-6{fill:#795ce5;}</style></defs><g id="Layer_2" data-name="Layer 2"><g id="Layer_1-2" data-name="Layer 1"><path class="cls-1" d="M196,194.46,187,68.42v-.37c0-1.37.74-2,2.23-2h22a1.82,1.82,0,0,1,2.06,2l2.05,67.12c.12.5.3.74.55.74s.44-.24.57-.74l18.08-67.12a2.48,2.48,0,0,1,2.61-2h18.27a1.81,1.81,0,0,1,2.05,2l2.43,67.12c0,.5.15.74.46.74s.53-.24.65-.74l17.34-67.12A2.48,2.48,0,0,1,281,66H302.4c1.49,0,2.05.81,1.68,2.42l-38.4,126a2.51,2.51,0,0,1-2.62,2H243.49a1.82,1.82,0,0,1-2.06-2l-2.23-69c0-.49-.12-.74-.37-.74s-.5.25-.75.74l-18.08,69a2.51,2.51,0,0,1-2.61,2H198.18C196.69,196.51,196,195.82,196,194.46Z"/><path class="cls-1" d="M379.12,87.91a2.16,2.16,0,0,1-1.58.65H339.69a.82.82,0,0,0-.93.93L335,119q0,.93.75.93h21.81a1.87,1.87,0,0,1,1.49.65,1.81,1.81,0,0,1,.38,1.59l-2.24,18.08a3.11,3.11,0,0,1-.84,1.59,2.18,2.18,0,0,1-1.59.65H333.16q-1.11,0-1.11.93L328.5,173q-.37.93.75.93h37.66a2.2,2.2,0,0,1,1.59.65,1.66,1.66,0,0,1,.46,1.59l-2.24,18.08a3.06,3.06,0,0,1-.83,1.59,2.2,2.2,0,0,1-1.59.65H302.22a1.89,1.89,0,0,1-1.5-.65,1.81,1.81,0,0,1-.37-1.59l15.48-126a3,3,0,0,1,.84-1.59,2.16,2.16,0,0,1,1.58-.65h62.09a1.89,1.89,0,0,1,1.49.65,1.81,1.81,0,0,1,.37,1.59L380,86.32A3,3,0,0,1,379.12,87.91Z"/><path class="cls-1" d="M443.26,187q-11.29,9.51-27.69,9.51H381.45a1.87,1.87,0,0,1-1.49-.65,1.78,1.78,0,0,1-.37-1.59l15.47-126a3,3,0,0,1,.84-1.59,2.18,2.18,0,0,1,1.59-.65h30.2q16.4,0,25.45,7.36t9,21.91c0,1.24-.13,3.36-.37,6.34q-2.25,18.27-15.66,26.85c-.5.37-.56.74-.19,1.11q10.8,8.58,10.81,24.43,0,1.68-.37,5.78Q454.54,177.5,443.26,187Zm-16.87-17.71q3.9-4.47,5-12.68a31.17,31.17,0,0,0,.18-3.92q0-6.52-2.79-10.25a9.22,9.22,0,0,0-7.83-3.73h-8.21c-.49,0-.87.31-1.11.93l-3.92,33.19q-.37.93.75.93h8A12.6,12.6,0,0,0,426.39,169.29ZM418,89.49l-3.72,29.27c0,.62.24.93.74.93h6.53q7.08,0,11.09-5t4-14c0-4-1-7-2.89-9.05s-4.69-3.07-8.3-3.07h-6.53A.82.82,0,0,0,418,89.49Z"/><path class="cls-2" d="M534.52,155.12c-.87,6-1.68,10.63-2.43,14q-3.17,13.43-12.77,21.16t-24,7.74q-14.91,0-23.3-8.21T464.6,168c0-2.23.25-5.84.75-10.81a2.3,2.3,0,0,1,2.42-2.24h21.07c1.61,0,2.3.75,2.05,2.24a59.67,59.67,0,0,0-.56,8q0,4.84,2.05,7.55a6.83,6.83,0,0,0,5.78,2.7,8.75,8.75,0,0,0,6.25-2.61,15.74,15.74,0,0,0,4-7.08q.57-2.81,2.24-13.43a103.51,103.51,0,0,0,.75-13.8,10.57,10.57,0,0,0-2.24-6.52,6.76,6.76,0,0,0-5.41-2.43A9.29,9.29,0,0,0,498,132a3.87,3.87,0,0,1-1.5.75,1.67,1.67,0,0,1-1.49-.94l-9.51-11.37a1.82,1.82,0,0,1-.37-1.31,2.56,2.56,0,0,1,.74-1.86L511,89.49c.49-.74.37-1.12-.38-1.12H478a1.86,1.86,0,0,1-1.5-.65,1.8,1.8,0,0,1-.37-1.59l2.24-17.89a3,3,0,0,1,.84-1.59,2.16,2.16,0,0,1,1.58-.65h62.27a1.91,1.91,0,0,1,1.5.65,1.81,1.81,0,0,1,.37,1.59l-2.24,18.64a6.41,6.41,0,0,1-1.3,2.8L517.92,116c-.49.74-.43,1.11.19,1.11a16.54,16.54,0,0,1,12.49,7.46q4.67,6.72,4.66,16.78A123.38,123.38,0,0,1,534.52,155.12Z"/><path class="cls-1" d="M543.84,195.86a1.78,1.78,0,0,1-.38-1.59l15.48-126a3,3,0,0,1,.84-1.59,2.16,2.16,0,0,1,1.58-.65H594q15.1,0,23.77,8.3t8.67,22.27c0,1.25-.13,3.11-.37,5.6l-7.28,58.17q-2.06,16.41-13.14,26.29T578,196.51H545.33A1.86,1.86,0,0,1,543.84,195.86ZM572.36,174l8.21-.19a11.65,11.65,0,0,0,8.48-4.29,20.11,20.11,0,0,0,4.57-10.81l6.71-54.81a21,21,0,0,0,.19-3.17q0-5.59-2.52-8.86a8.56,8.56,0,0,0-7.18-3.26h-8a.82.82,0,0,0-.93.93L571.62,173C571.37,173.64,571.62,174,572.36,174Z"/><path class="cls-1" d="M707.81,87.91a2.16,2.16,0,0,1-1.58.65H668.38a.82.82,0,0,0-.93.93L663.72,119c0,.62.24.93.74.93h21.82a1.87,1.87,0,0,1,1.49.65,1.81,1.81,0,0,1,.37,1.59L685.9,140.2a3,3,0,0,1-.83,1.59,2.2,2.2,0,0,1-1.59.65H661.85q-1.11,0-1.11.93L657.19,173q-.37.93.75.93H695.6a2.16,2.16,0,0,1,1.58.65,1.66,1.66,0,0,1,.47,1.59l-2.24,18.08a3.06,3.06,0,0,1-.83,1.59,2.2,2.2,0,0,1-1.59.65H630.91a1.89,1.89,0,0,1-1.5-.65,1.81,1.81,0,0,1-.37-1.59l15.47-126a3.09,3.09,0,0,1,.85-1.59,2.14,2.14,0,0,1,1.58-.65H709a1.87,1.87,0,0,1,1.48.65,1.78,1.78,0,0,1,.38,1.59l-2.24,18.08A3.08,3.08,0,0,1,707.81,87.91Z"/><path class="cls-1" d="M730.27,194.46l-10.44-126v-.37c0-1.37.74-2,2.24-2h23.3a1.81,1.81,0,0,1,2,2l2.43,82c0,.5.15.75.46.75s.53-.25.66-.75l22.18-82a2.49,2.49,0,0,1,2.61-2h22.56c1.49,0,2,.81,1.49,2.42l-41.57,126a2.51,2.51,0,0,1-2.61,2H732.32A1.81,1.81,0,0,1,730.27,194.46Z"/><polygon class="cls-3" points="11 176 53.9 169.4 154 198 77 209.84 11 176"/><polygon class="cls-3" points="22 44 77 30.25 110 66 89.69 71.08 22 44"/><polygon class="cls-3" points="0 110 54.35 100.94 132 132 97.26 137.79 0 110"/><polygon class="cls-4" points="22 44 132 88 132 132 22 88 22 44"/><polygon class="cls-2" points="77 0 110 22 110 66 77 44 77 0"/><polygon class="cls-5" points="0 110 154 154 154 198 0 154 0 110"/><polygon class="cls-6" points="11 176 77 198 77 242 11 220 11 176"/></g></g></svg>